<?xml version="1.0" encoding="UTF-8" standalone="no"?>
<!-- Created with Inkscape (http://www.inkscape.org/) -->

<svg
   width="249.99998"
   height="280"
   viewBox="0 0 66.145828 74.083333"
   version="1.1"
   id="svg1"
   inkscape:version="1.3.2 (091e20ef0f, 2023-11-25, custom)"
   xml:space="preserve"
   xmlns:inkscape="http://www.inkscape.org/namespaces/inkscape"
   xmlns:sodipodi="http://sodipodi.sourceforge.net/DTD/sodipodi-0.dtd"
   xmlns="http://www.w3.org/2000/svg"
   xmlns:svg="http://www.w3.org/2000/svg"><sodipodi:namedview
     id="namedview1"
     pagecolor="#000000"
     bordercolor="#666666"
     borderopacity="1.0"
     inkscape:showpageshadow="2"
     inkscape:pageopacity="0.0"
     inkscape:pagecheckerboard="false"
     inkscape:deskcolor="#d1d1d1"
     inkscape:document-units="mm"
     inkscape:clip-to-page="false" /><defs
     id="defs1" /><g
     id="g3"
     transform="matrix(1.1189371,0,0,1.1189371,-0.88341348,-5.4903086)"><g
       inkscape:groupmode="layer"
       id="layer2"
       inkscape:label="skecth"
       style="opacity:1;stroke-width:0.472919;stroke-dasharray:none"><path
         style="fill:none;stroke:#ffffff;stroke-width:0.472919;stroke-linecap:butt;stroke-linejoin:miter;stroke-dasharray:none;stroke-opacity:1"
         d="M 20.522787,49.027336 48.278922,9.1201678 c 0,0 0.899569,-0.8155837 1.778797,-0.2575758 2.015283,0.9939655 3.319595,2.04089 3.319595,2.04089 0.897811,0.747931 0.417388,2.147501 0.417388,2.147501 L 25.549777,53.87038 23.799209,55.360059 19.04909,52.022647 19.916476,49.764611 Z"
         id="path1"
         inkscape:label="manico"
         sodipodi:nodetypes="cccccccccc" /><path
         style="fill:none;stroke:#ffffff;stroke-width:0.472919;stroke-linecap:butt;stroke-linejoin:miter;stroke-dasharray:none;stroke-opacity:1"
         d="m 23.288123,54.993518 -1.534453,2.265871 0.160813,0.518588 -1.143834,1.556073 -0.906071,-0.497303 -2.305934,2.801263 -2.073143,-1.50762 1.557075,-3.056472 -0.6307,-0.700058 1.030111,-1.765014 0.343101,0.31139 1.640898,-2.577253 z"
         id="path2"
         inkscape:label="inserto punta"
         sodipodi:nodetypes="ccccccccccccc" /><path
         style="fill:none;stroke:#ffffff;stroke-width:0.472919;stroke-linecap:butt;stroke-linejoin:miter;stroke-dasharray:none;stroke-opacity:1"
         d="m 15.807169,60.386165 -1.528771,1.61209 c -0.676184,0.278751 -1.235766,0.623568 -2.632759,0.876508 -1.00465,0.273588 -3.7394518,1.677061 -4.864541,3.394693 -0.1287287,1.248646 0.9873922,1.07501 0.9873922,1.07501 0.6437401,-0.0738 1.3409424,-2.785042 5.8614698,-3.694145 0.911095,-0.220262 1.840666,-0.776027 1.840666,-0.776027 l 1.488488,-1.664352 z"
         id="path3"
         sodipodi:nodetypes="ccccccccc" /></g></g></svg>
