<?xml version="1.0" encoding="UTF-8" standalone="no"?>
<!-- Created with Inkscape (http://www.inkscape.org/) -->

<svg
   width="250"
   height="280"
   viewBox="0 0 66.145832 74.083333"
   version="1.1"
   id="svg1"
   inkscape:version="1.3.2 (091e20ef0f, 2023-11-25, custom)"
   xml:space="preserve"
   sodipodi:docname="ldd.svg"
   xmlns:inkscape="http://www.inkscape.org/namespaces/inkscape"
   xmlns:sodipodi="http://sodipodi.sourceforge.net/DTD/sodipodi-0.dtd"
   xmlns="http://www.w3.org/2000/svg"
   xmlns:svg="http://www.w3.org/2000/svg"><sodipodi:namedview
     id="namedview1"
     pagecolor="#000000"
     bordercolor="#666666"
     borderopacity="1.0"
     inkscape:showpageshadow="2"
     inkscape:pageopacity="0.0"
     inkscape:pagecheckerboard="false"
     inkscape:deskcolor="#d1d1d1"
     inkscape:document-units="mm"
     inkscape:clip-to-page="false"
     inkscape:zoom="2.568"
     inkscape:cx="114.68069"
     inkscape:cy="136.68224"
     inkscape:window-width="1916"
     inkscape:window-height="1033"
     inkscape:window-x="0"
     inkscape:window-y="0"
     inkscape:window-maximized="1"
     inkscape:current-layer="svg1"
     showgrid="false" /><defs
     id="defs1"><rect
       x="38.480741"
       y="34.550616"
       width="174.46184"
       height="71.545325"
       id="rect2" /></defs><g
     inkscape:label="book"
     inkscape:groupmode="layer"
     id="layer1"
     transform="translate(-0.05345901,-0.04443916)"><rect
       style="display:inline;fill:#ffffff;stroke-width:0.264583;stroke-linecap:round;stroke-linejoin:round"
       id="rect1"
       width="47.156536"
       height="19.805353"
       x="9.6181765"
       y="8.6094589" /><text
       xml:space="preserve"
       transform="matrix(0.26458333,0,0,0.26458333,-0.08761774,-2.8411001)"
       id="text1"
       style="font-style:normal;font-variant:normal;font-weight:normal;font-stretch:normal;font-size:56px;line-height:1.25;font-family:FreeSerif;-inkscape-font-specification:'FreeSerif, Normal';font-variant-ligatures:normal;font-variant-caps:normal;font-variant-numeric:normal;font-variant-east-asian:normal;text-align:center;white-space:pre;shape-inside:url(#rect2);fill:#000000;fill-opacity:1;stroke:none"
       inkscape:label="linux"><tspan
         x="38.967873"
         y="86.350781"
         id="tspan2">LINUX</tspan></text><text
       xml:space="preserve"
       style="font-style:normal;font-variant:normal;font-weight:bold;font-stretch:normal;font-size:6.11705px;line-height:1.25;font-family:FreeSerif;-inkscape-font-specification:'FreeSerif, Bold';font-variant-ligatures:normal;font-variant-caps:normal;font-variant-numeric:normal;font-variant-east-asian:normal;fill:#000000;fill-opacity:1;stroke:none;stroke-width:0.191158"
       x="12.477911"
       y="22.912846"
       id="text3"
       inkscape:label="device drivers"
       transform="scale(0.85689631,1.1670023)"><tspan
         sodipodi:role="line"
         id="tspan3"
         style="font-style:normal;font-variant:normal;font-weight:bold;font-stretch:normal;font-size:6.11705px;font-family:FreeSerif;-inkscape-font-specification:'FreeSerif, Bold';font-variant-ligatures:normal;font-variant-caps:normal;font-variant-numeric:normal;font-variant-east-asian:normal;stroke-width:0.191158"
         x="12.477911"
         y="22.912846">DEVICE DRIVERS</tspan></text><rect
       style="fill:none;stroke:#ffffff;stroke-width:0.529167;stroke-linecap:round;stroke-linejoin:round;stroke-dasharray:none"
       id="rect3"
       width="53.972008"
       height="71.29731"
       x="6.1403718"
       y="1.4374509" /><path
       style="fill:none;stroke:#ffffff;stroke-width:0.132292;stroke-linecap:butt;stroke-linejoin:miter;stroke-dasharray:none;stroke-opacity:1"
       d="M 9.7428164,2.4030984 56.766655,2.4792164"
       id="path3" /><text
       xml:space="preserve"
       style="font-style:normal;font-variant:normal;font-weight:normal;font-stretch:normal;font-size:1.58802px;line-height:1.25;font-family:FreeSerif;-inkscape-font-specification:FreeSerif;fill:#ffffff;fill-opacity:1;stroke:none;stroke-width:0.297755"
       x="12.333857"
       y="3.4061608"
       id="text5"
       transform="scale(0.82081676,1.2182987)"><tspan
         sodipodi:role="line"
         id="tspan5"
         style="font-style:normal;font-variant:normal;font-weight:normal;font-stretch:normal;font-size:1.58802px;font-family:FreeSerif;-inkscape-font-specification:FreeSerif;fill:#ffffff;stroke-width:0.297755"
         x="12.333857"
         y="3.4061608">A UNIX-COMPATIBLE OPERATING SYSTEM FOR THE PERSONAL COMPUTER</tspan></text><path
       style="opacity:1;fill:#ffffff;stroke:none;stroke-width:0.264583;stroke-linecap:round;stroke-linejoin:round;stroke-dasharray:none;stroke-opacity:1;paint-order:markers fill stroke"
       d="m 44.6728,32.043338 0.394414,-0.950566 0.0013,-1.70447 2.186371,-2.296919 5.541698,0.303525 c 1.626161,1.313095 2.329458,2.797771 2.391219,4.401722 0.217752,1.201802 0.577557,2.140016 0.435319,4.009808 l -0.954217,-2.183905 c 0.1723,0.577041 0.526201,0.867945 -0.266126,2.964878 l -0.545044,-0.911487 c -0.161007,0.483472 -0.07563,1.069078 -0.567274,1.415489 l -0.117354,-1.354222 c -0.08448,1.059252 -0.451496,1.91085 -0.948928,2.66659 l -0.331832,-0.451784 -0.01056,-4.106923 -0.640421,1.61178 C 50.95871,34.135402 50.235161,33.394448 50.412123,31.467845 l -0.758695,1.547313 -0.303522,-1.790634 -0.07583,1.551882 -2.311673,-1.975843 0.161526,1.129568 -0.860719,-0.234982 -0.07727,0.528693 c 3.220841,0.01336 4.149465,1.384803 4.689337,2.986574 l 1.284785,4.102053 1.822352,-2.483168 0.828654,0.144251 c 0.439242,0.355564 0.323227,0.919751 0.285284,1.454605 l -0.856353,4.700524 0.331449,0.310113 -0.02556,-0.246547 0.664652,-0.04184 0.994053,1.026486 0.198818,1.270174 -0.446542,0.615104 -0.909347,-0.470681 -1.063773,-0.721908 -0.742315,0.06206 -0.732816,-0.919533 0.469609,-1.406771 c -0.46651,0.724268 -0.753254,1.545849 -1.547789,2.092547 -0.883626,0.0116 -1.724153,-0.17162 -2.539198,-0.470027 l -1.039466,-1.402998 -1.122669,-0.03423 0.678336,1.310653 -0.33659,1.425623 0.786664,0.0768 0.453295,1.445395 c 0.0055,0.248814 0.127227,0.507633 -0.267525,0.721969 -0.211653,0.229765 -0.486968,-7.94e-4 -0.766006,-0.258271 -0.618217,0.196668 -0.77603,-0.224193 -1.151615,-0.352962 l -0.312375,-0.530214 c -0.604001,0.07475 -1.216336,0.237922 -1.779183,-0.123979 l -1.69174,1.405483 c -1.072287,0.724907 -2.136477,1.472407 -3.406516,1.645526 -0.946219,0.411176 -0.961597,0.206262 -1.367613,0.259897 l -1.006094,0.521724 -0.44704,0.07538 c -0.128383,0.657601 -0.341439,1.166705 -0.683955,1.448768 l 1.385689,0.800627 0.460811,0.896659 -0.148905,1.068457 c -0.648189,0.480599 -1.299192,0.969457 -1.75538,0.88669 -0.609835,-0.115583 -0.65429,-0.249544 -0.936316,-0.375783 l -1.651262,-0.90769 -1.394028,0.858309 -0.857692,1.018648 -0.36109,0.575411 -0.314251,0.0058 -0.609442,1.250805 c -0.316834,0.655827 -0.620956,1.3435 -1.139888,1.493057 0.159069,0.8178 -0.213127,1.29687 -0.887616,1.5832 l -0.286782,0.01868 0.317264,0.629486 -0.202477,1.098852 c -1.109634,0.14052 -2.251636,0.343083 -3.175052,0.126663 0.194221,-0.424122 0.523258,-0.827201 1.111424,-1.189831 v -0.462626 l 0.494072,-0.231431 0.456488,-1.120206 0.260165,-0.337043 0.695039,-0.909706 1.588886,-2.152134 0.180023,-1.574493 0.931114,-1.130953 0.762002,-0.352235 -0.316171,-0.536025 -1.094825,1.066105 -1.264497,1.367824 -2.324837,2.348574 c -0.280876,0.282328 -0.362708,0.536522 -1.04666,0.875821 -0.1797,0.490055 -0.657461,0.864798 -1.013338,1.286695 l -0.99992,1.121389 -1.372893,1.699355 -0.394154,0.970793 -0.108765,0.411155 -0.467383,-0.158192 -0.420371,0.375296 0.26714,0.381169 -0.09026,0.665533 -0.71403,0.727104 c -0.470911,-0.08852 -0.0021,-0.157252 -1.425283,-0.165805 -0.390116,-0.08219 -0.565151,0.113183 -0.880959,0.06309 l 0.02576,-0.41602 0.569632,-0.825201 0.51154,-0.802056 0.800933,-0.84157 0.296116,-0.708597 0.813,-0.612179 0.991266,-1.139661 0.955575,-1.124869 c 0.404477,-0.844829 0.752825,-1.783375 1.401494,-2.220489 0.06355,-0.704885 1.028601,-1.113376 1.775783,-1.593498 l 0.853518,-1.66339 0.560179,-1.331854 0.590515,-0.933644 -0.710334,-1.314304 c -1.09684,-0.964446 -1.50151,-2.310308 -2.103796,-3.547274 l 0.406739,-1.456055 -0.882011,-1.304406 0.08362,-0.808445 -0.271038,-2.628128 -0.332169,-1.272958 0.584296,-2.024994 0.200636,-1.128813 0.17759,0.973879 1.039763,-3.430918 c 0.398818,0.723215 0.456487,2.299394 0.522832,3.853883 0.38061,-1.771161 0.8619,-3.374071 1.923726,-4.006818 l -0.297897,2.434839 0.339567,-0.626543 0.510928,0.960016 c 0.230664,-0.543901 0.372721,-1.144057 0.897252,-1.501386 l -0.395827,1.951222 2.504326,-4.06867 -0.101055,1.974221 0.809229,-0.807445 1.180078,0.663673 0.672105,1.221197 0.632143,0.458732 0.489437,0.0011 -0.20342,-0.828368 -0.02622,-0.567608 0.390562,-0.550344 1.840389,-1.189686 2.182791,-0.810525 1.523778,-0.0755 2.21384,0.07459 0.737851,0.156501 z"
       id="path5"
       inkscape:label="HOURSE"
       sodipodi:nodetypes="ccccccccccccccccccccccccccccccccccccccccccccccccccccccccccccccccccccccccccccccccccccccccccccccccccccccccccccccccccccccccccccccccccccccccccccccccccccccc" /><text
       xml:space="preserve"
       style="font-size:1.73596px;line-height:1.25;font-family:FreeSerif;-inkscape-font-specification:FreeSerif;fill:#ffffff;stroke-width:0.216995"
       x="51.490097"
       y="57.58345"
       id="text6"
       transform="scale(0.8201382,1.2193067)"
       inkscape:label="ALE RUB"><tspan
         sodipodi:role="line"
         id="tspan6"
         style="font-size:1.73596px;fill:#ffffff;stroke-width:0.216995"
         x="51.490097"
         y="57.58345">ALESSANDRO RUBINI</tspan></text><text
       xml:space="preserve"
       style="font-style:normal;font-variant:normal;font-weight:600;font-stretch:normal;font-size:2.15188px;line-height:1.25;font-family:FreeSans;-inkscape-font-specification:'FreeSans, Semi-Bold';font-variant-ligatures:normal;font-variant-caps:normal;font-variant-numeric:normal;font-variant-east-asian:normal;fill:#ffffff;stroke-width:0.161391"
       x="9.691143"
       y="71.441711"
       id="text7"
       transform="scale(1.016658,0.98361495)"
       inkscape:label="o'reilly"><tspan
         sodipodi:role="line"
         id="tspan7"
         style="font-style:normal;font-variant:normal;font-weight:600;font-stretch:normal;font-size:2.15188px;font-family:FreeSans;-inkscape-font-specification:'FreeSans, Semi-Bold';font-variant-ligatures:normal;font-variant-caps:normal;font-variant-numeric:normal;font-variant-east-asian:normal;fill:#ffffff;stroke-width:0.161391"
         x="9.691143"
         y="71.441711">O'REILLY</tspan></text></g></svg>
