<?xml version="1.0" encoding="UTF-8" standalone="no"?>
<!-- Created with Inkscape (http://www.inkscape.org/) -->

<svg
   width="250"
   height="280"
   viewBox="0 0 66.145832 74.083333"
   version="1.1"
   id="svg1"
   inkscape:version="1.3.2 (091e20ef0f, 2023-11-25, custom)"
   xml:space="preserve"
   sodipodi:docname="leatherman-micra.svg"
   xmlns:inkscape="http://www.inkscape.org/namespaces/inkscape"
   xmlns:sodipodi="http://sodipodi.sourceforge.net/DTD/sodipodi-0.dtd"
   xmlns="http://www.w3.org/2000/svg"
   xmlns:svg="http://www.w3.org/2000/svg"><sodipodi:namedview
     id="namedview1"
     pagecolor="#000000"
     bordercolor="#666666"
     borderopacity="1.0"
     inkscape:showpageshadow="2"
     inkscape:pageopacity="0.0"
     inkscape:pagecheckerboard="false"
     inkscape:deskcolor="#d1d1d1"
     inkscape:document-units="mm"
     inkscape:clip-to-page="false"
     inkscape:zoom="2.8284271"
     inkscape:cx="105.88924"
     inkscape:cy="142.83557"
     inkscape:window-width="1916"
     inkscape:window-height="1033"
     inkscape:window-x="0"
     inkscape:window-y="0"
     inkscape:window-maximized="1"
     inkscape:current-layer="layer3" /><defs
     id="defs1" /><g
     inkscape:groupmode="layer"
     id="layer3"
     inkscape:label="micra"
     style="opacity:1;fill:#000000"
     transform="matrix(1.0595949,0,0,1.0595949,-1.8154244,-0.03122432)"><path
       style="opacity:1;fill:none;stroke:#ffffff;stroke-width:0.264583px;stroke-linecap:butt;stroke-linejoin:miter;stroke-opacity:1"
       d="M 25.883065,28.802982 27.918407,24.582298 27.374027,8.0437243 C 27.573051,7.447739 27.696185,6.6978684 28.446078,6.1918225 l 3.31637,11.4757125 3.697875,-11.4554788 c 0.404975,0.3902294 0.821647,0.7210701 0.925891,1.7426906 l -0.919427,16.6175452 1.91576,4.309225 c -2.347629,0.02192 -3.054693,1.674735 -3.97674,3.113833 -0.02011,-2.993063 -3.526795,-2.972947 -3.683438,-0.252206 -0.935685,-1.512575 -2.394503,-2.562057 -3.839304,-2.940162 z"
       id="path15"
       sodipodi:nodetypes="cccccccccccc"
       inkscape:label="scissor" /><path
       style="fill:none;stroke:#ffffff;stroke-width:0.529167;stroke-linecap:butt;stroke-linejoin:miter;stroke-dasharray:none;stroke-opacity:1"
       d="m 25.629915,28.721805 c 4.576304,0.894245 3.979095,3.704872 3.979095,3.704872 0,0 -11.10838,28.943687 -11.600271,29.369468 -1.174847,2.679354 -5.911719,1.19777 -5.085481,-2.164153 l 3.686022,-9.025533 c 2.477933,-0.929911 4.265299,-3.796302 3.05773,-7.577952 l 3.379087,-8.462943 0.579011,-0.88427 c 0,0 1.646074,-4.29212 2.004807,-4.959489 z"
       id="path2"
       inkscape:label="left-handle"
       sodipodi:nodetypes="ccccccccc" /><path
       style="fill:none;stroke:#ffffff;stroke-width:0.529167;stroke-linecap:butt;stroke-linejoin:miter;stroke-dasharray:none;stroke-opacity:1"
       d="m 37.5863,28.741035 c -4.576304,0.894245 -3.979095,3.704872 -3.979095,3.704872 0,0 10.689523,29.377289 11.181414,29.80307 1.174847,2.679354 5.657181,1.560999 4.830943,-1.800924 l -3.301847,-9.473238 c -2.477933,-0.929911 -4.13192,-3.755031 -2.924351,-7.536681 l -3.223246,-8.85334 -0.579011,-0.88427 c 0,0 -1.646074,-4.29212 -2.004807,-4.959489 z"
       id="path3"
       inkscape:label="rigth-handle"
       sodipodi:nodetypes="ccccccccc" /><g
       id="g10"
       inkscape:label="left-tools"
       style="opacity:1;fill:#000000;stroke:#ffffff;stroke-width:0.396875;stroke-dasharray:none"><path
         style="opacity:1;fill:none;stroke:#ffffff;stroke-width:0.264583;stroke-linecap:round;stroke-linejoin:round;stroke-dasharray:none;stroke-opacity:1"
         d="M 11.595192,55.333259 6.7517826,38.601877 6.8921262,38.360636 11.516266,53.965561 13.174384,53.497967 8.5860705,37.915325 8.806278,38.177978 13.336857,52.95357 13.176438,56.442699 c -0.513489,-0.273045 -0.961499,-0.07994 -1.581246,-1.10944 z"
         id="path5"
         sodipodi:nodetypes="cccccccccc"
         inkscape:label="pinza" /><path
         style="opacity:1;fill:none;stroke:#ffffff;stroke-width:0.264583;stroke-linecap:butt;stroke-linejoin:round;stroke-dasharray:none;stroke-opacity:1"
         d="m 13.150723,56.32542 1.519123,-20.908268 0.806631,0.142506 0.07539,5.683197 c 0.18823,0.852495 0.529266,1.133474 0.887889,1.348674 l 1.994918,1.368803 c 0.202319,0.279864 0.342807,0.578878 0.06206,1.008354 l -2.799676,3.3333 c -1.132532,2.762821 -0.322353,3.237054 0.143577,4.116827 L 13.1339,59.238562 Z"
         id="path6"
         sodipodi:nodetypes="ccccccccccc"
         inkscape:label="small screwdriver" /><path
         style="opacity:1;fill:none;stroke:#ffffff;stroke-width:0.264583;stroke-linecap:round;stroke-linejoin:round;stroke-dasharray:none;stroke-opacity:1;paint-order:normal"
         d="M 12.761544,61.15348 2.5940004,49.019589 2.1052726,47.098722 l 0.807152,-0.671079 1.7370332,0.729017 6.9642342,8.443988 c 0.809177,0.707324 1.517655,0.905528 1.517655,0.905528 l -0.0445,1.678982 z"
         id="path4"
         sodipodi:nodetypes="ccccccccc"
         inkscape:label="screwdriver" /></g><g
       id="g9"
       inkscape:label="right-tools"
       style="stroke:#ffffff"><path
         style="opacity:1;fill:none;stroke:#ffffff;stroke-width:0.264583;stroke-linecap:butt;stroke-linejoin:round;stroke-dasharray:none;stroke-opacity:1"
         d="m 52.818778,42.426964 2.295016,0.671181 -0.475812,1.735818 0.05415,0.270093 -4.826153,15.328856 -0.298429,-0.74862 0.188497,-7.590442 2.280795,-7.693243 0.206245,-0.19923 z"
         id="path8"
         inkscape:label="mid-screwdriver"
         sodipodi:nodetypes="cccccccccc" /><path
         style="opacity:1;fill:none;stroke:#ffffff;stroke-width:0.264583px;stroke-linecap:butt;stroke-linejoin:miter;stroke-opacity:1"
         d="M 49.830645,61.770046 63.240406,44.344492 c 0.8164,-1.289443 0.541349,-2.392071 -0.03131,-3.443759 -1.055476,2.260705 -2.575024,3.10747 -4.505364,3.260532 l -6.191237,7.977002 -2.714896,8.613495 z"
         id="path7"
         sodipodi:nodetypes="ccccccc"
         inkscape:label="limetta" /><path
         style="opacity:1;fill:none;stroke:#ffffff;stroke-width:0.264583px;stroke-linecap:butt;stroke-linejoin:round;stroke-opacity:1"
         d="m 48.10424,35.065951 1.168379,7.908065 0.323367,16.611555 -3.110346,-8.601681 -0.979771,-0.627737 -0.0012,-8.784629 c 0.04397,-3.319206 1.600384,-5.552368 2.599555,-6.505573 z"
         id="path9"
         sodipodi:nodetypes="ccccccc"
         inkscape:label="blade" /></g><text
       xml:space="preserve"
       style="font-style:normal;font-variant:normal;font-weight:bold;font-stretch:normal;font-size:2.11683px;line-height:1.25;font-family:'Bitstream Vera Sans';-inkscape-font-specification:'Bitstream Vera Sans, Bold';font-variant-ligatures:normal;font-variant-caps:normal;font-variant-numeric:normal;font-variant-east-asian:normal;fill:none;fill-opacity:1;stroke:#ffffff;stroke-width:0.171979;stroke-linecap:round;stroke-linejoin:round;stroke-dasharray:none"
       x="24.465214"
       y="-36.742466"
       id="text10"
       transform="rotate(111.3545)"
       inkscape:label="handle-text"><tspan
         sodipodi:role="line"
         id="tspan10"
         style="font-style:normal;font-variant:normal;font-weight:bold;font-stretch:normal;font-size:2.11683px;font-family:'Bitstream Vera Sans';-inkscape-font-specification:'Bitstream Vera Sans, Bold';font-variant-ligatures:normal;font-variant-caps:normal;font-variant-numeric:normal;font-variant-east-asian:normal;fill:none;stroke:#ffffff;stroke-width:0.171979;stroke-linecap:round;stroke-linejoin:round;stroke-dasharray:none"
         x="24.465214"
         y="-36.742466">LEATHERMAN Micra</tspan></text><path
       sodipodi:type="star"
       style="fill:#ffffff;fill-opacity:1;stroke:none;stroke-width:0.164734;stroke-linecap:round;stroke-linejoin:round;stroke-dasharray:none;stroke-opacity:1;paint-order:normal"
       id="path10"
       inkscape:flatsided="false"
       sodipodi:sides="20"
       sodipodi:cx="15.586437"
       sodipodi:cy="60.629406"
       sodipodi:r1="1.6916698"
       sodipodi:r2="1.5218304"
       sodipodi:arg1="1.0993769"
       sodipodi:arg2="1.2564565"
       inkscape:rounded="0"
       inkscape:randomized="0"
       d="m 16.354711,62.136556 -0.297741,-0.05989 -0.205596,0.223533 -0.264662,-0.148965 -0.264609,0.14906 -0.205676,-0.223458 -0.29772,0.06 -0.126557,-0.276079 -0.301688,-0.03494 -0.03505,-0.301675 -0.276125,-0.126458 0.05989,-0.297741 -0.223533,-0.205596 0.148965,-0.264662 -0.14906,-0.264609 0.223459,-0.205676 -0.06,-0.29772 0.276079,-0.126557 0.03494,-0.301688 0.301675,-0.03505 0.126458,-0.276125 0.297741,0.05989 0.205596,-0.223533 0.264662,0.148965 0.264609,-0.14906 0.205676,0.223458 0.29772,-0.05999 0.126557,0.276079 0.301688,0.03494 0.03505,0.301675 0.276125,0.126458 -0.05989,0.297741 0.223533,0.205596 -0.148964,0.264662 0.14906,0.264609 -0.223459,0.205676 0.06,0.29772 -0.27608,0.126557 -0.03494,0.301688 -0.301675,0.03505 z"
       inkscape:transform-center-x="0.26418073"
       inkscape:transform-center-y="-0.22563826"
       inkscape:label="gear"
       transform="translate(0.01829079,-0.15542802)" /><path
       sodipodi:type="star"
       style="fill:#ffffff;fill-opacity:1;stroke:none;stroke-width:0.126719;stroke-linecap:round;stroke-linejoin:round;stroke-dasharray:none;stroke-opacity:1;paint-order:normal"
       id="path11"
       inkscape:flatsided="false"
       sodipodi:sides="20"
       sodipodi:cx="15.586437"
       sodipodi:cy="60.629406"
       sodipodi:r1="1.6916698"
       sodipodi:r2="1.5218304"
       sodipodi:arg1="1.0993769"
       sodipodi:arg2="1.2564565"
       inkscape:rounded="0"
       inkscape:randomized="0"
       d="m 16.354711,62.136556 -0.297741,-0.05989 -0.205596,0.223533 -0.264662,-0.148965 -0.264609,0.14906 -0.205676,-0.223458 -0.29772,0.06 -0.126557,-0.276079 -0.301688,-0.03494 -0.03505,-0.301675 -0.276125,-0.126458 0.05989,-0.297741 -0.223533,-0.205596 0.148965,-0.264662 -0.14906,-0.264609 0.223459,-0.205676 -0.06,-0.29772 0.276079,-0.126557 0.03494,-0.301688 0.301675,-0.03505 0.126458,-0.276125 0.297741,0.05989 0.205596,-0.223533 0.264662,0.148965 0.264609,-0.14906 0.205676,0.223458 0.29772,-0.05999 0.126557,0.276079 0.301688,0.03494 0.03505,0.301675 0.276125,0.126458 -0.05989,0.297741 0.223533,0.205596 -0.148964,0.264662 0.14906,0.264609 -0.223459,0.205676 0.06,0.29772 -0.27608,0.126557 -0.03494,0.301688 -0.301675,0.03505 z"
       inkscape:transform-center-x="0.26417987"
       inkscape:transform-center-y="-0.22563036"
       inkscape:label="gear"
       transform="translate(11.295253,-28.625709)" /><path
       sodipodi:type="star"
       style="fill:#ffffff;fill-opacity:1;stroke:none;stroke-width:0.164734;stroke-linecap:round;stroke-linejoin:round;stroke-dasharray:none;stroke-opacity:1;paint-order:normal"
       id="path12"
       inkscape:flatsided="false"
       sodipodi:sides="20"
       sodipodi:cx="15.586437"
       sodipodi:cy="60.629406"
       sodipodi:r1="1.6916698"
       sodipodi:r2="1.5218304"
       sodipodi:arg1="1.0993769"
       sodipodi:arg2="1.2564565"
       inkscape:rounded="0"
       inkscape:randomized="0"
       d="m 16.354711,62.136556 -0.297741,-0.05989 -0.205596,0.223533 -0.264662,-0.148965 -0.264609,0.14906 -0.205676,-0.223458 -0.29772,0.06 -0.126557,-0.276079 -0.301688,-0.03494 -0.03505,-0.301675 -0.276125,-0.126458 0.05989,-0.297741 -0.223533,-0.205596 0.148965,-0.264662 -0.14906,-0.264609 0.223459,-0.205676 -0.06,-0.29772 0.276079,-0.126557 0.03494,-0.301688 0.301675,-0.03505 0.126458,-0.276125 0.297741,0.05989 0.205596,-0.223533 0.264662,0.148965 0.264609,-0.14906 0.205676,0.223458 0.29772,-0.05999 0.126557,0.276079 0.301688,0.03494 0.03505,0.301675 0.276125,0.126458 -0.05989,0.297741 0.223533,0.205596 -0.148964,0.264662 0.14906,0.264609 -0.223459,0.205676 0.06,0.29772 -0.27608,0.126557 -0.03494,0.301688 -0.301675,0.03505 z"
       inkscape:transform-center-x="0.26418139"
       inkscape:transform-center-y="-0.22563736"
       inkscape:label="gear"
       transform="translate(20.840517,-28.681704)" /><path
       sodipodi:type="star"
       style="fill:#ffffff;fill-opacity:1;stroke:none;stroke-width:0.164734;stroke-linecap:round;stroke-linejoin:round;stroke-dasharray:none;stroke-opacity:1;paint-order:normal"
       id="path13"
       inkscape:flatsided="false"
       sodipodi:sides="20"
       sodipodi:cx="15.586437"
       sodipodi:cy="60.629406"
       sodipodi:r1="1.6916698"
       sodipodi:r2="1.5218304"
       sodipodi:arg1="1.0993769"
       sodipodi:arg2="1.2564565"
       inkscape:rounded="0"
       inkscape:randomized="0"
       d="m 16.354711,62.136556 -0.297741,-0.05989 -0.205596,0.223533 -0.264662,-0.148965 -0.264609,0.14906 -0.205676,-0.223458 -0.29772,0.06 -0.126557,-0.276079 -0.301688,-0.03494 -0.03505,-0.301675 -0.276125,-0.126458 0.05989,-0.297741 -0.223533,-0.205596 0.148965,-0.264662 -0.14906,-0.264609 0.223459,-0.205676 -0.06,-0.29772 0.276079,-0.126557 0.03494,-0.301688 0.301675,-0.03505 0.126458,-0.276125 0.297741,0.05989 0.205596,-0.223533 0.264662,0.148965 0.264609,-0.14906 0.205676,0.223458 0.29772,-0.05999 0.126557,0.276079 0.301688,0.03494 0.03505,0.301675 0.276125,0.126458 -0.05989,0.297741 0.223533,0.205596 -0.148964,0.264662 0.14906,0.264609 -0.223459,0.205676 0.06,0.29772 -0.27608,0.126557 -0.03494,0.301688 -0.301675,0.03505 z"
       inkscape:transform-center-x="0.2641789"
       inkscape:transform-center-y="-0.22563751"
       inkscape:label="gear"
       transform="translate(31.487156,0.20049807)" /></g></svg>
